HIERARCHY
ROOT ui
{
	 OFFSET 0 0 0
	 CHANNELS 3 XPosition YPosition Z Position
	 EndSite
	 {
	 OFFSET 0 -1 0
	 }
}
ROOT li
{
	 OFFSET 0 0 0
	 CHANNELS 3 XPosition YPosition Z Position
	 EndSite
	 {
	 OFFSET 0 -1 0
	 }
}
ROOT ul
{
	 OFFSET 0 0 0
	 CHANNELS 3 XPosition YPosition Z Position
	 EndSite
	 {
	 OFFSET 0 -1 0
	 }
}
ROOT ll
{
	 OFFSET 0 0 0
	 CHANNELS 3 XPosition YPosition Z Position
	 EndSite
	 {
	 OFFSET 0 -1 0
	 }
}
ROOT tt
{
	 OFFSET 0 0 0
	 CHANNELS 3 XPosition YPosition Z Position
	 EndSite
	 {
	 OFFSET 0 -1 0
	 }
}
ROOT tb
{
	 OFFSET 0 0 0
	 CHANNELS 3 XPosition YPosition Z Position
	 EndSite
	 {
	 OFFSET 0 -1 0
	 }
}
ROOT td
{
	 OFFSET 0 0 0
	 CHANNELS 3 XPosition YPosition Z Position
	 EndSite
	 {
	 OFFSET 0 -1 0
	 }
}
ROOT v
{
	 OFFSET 0 0 0
	 CHANNELS 3 XPosition YPosition Z Position
	 EndSite
	 {
	 OFFSET 0 -1 0
	 }
}
ROOT bn
{
	 OFFSET 0 0 0
	 CHANNELS 3 XPosition YPosition Z Position
	 EndSite
	 {
	 OFFSET 0 -1 0
	 }
}
MOTION
Frames: 10
Frame Time: 0.002
-0.0016468260288238525	-0.00517810583114624	0		0.4835743103027344	-2.588751220703125	0		-0.9435419311523437	0.23817268371582032	0		-0.6127174682617188	-2.909427734375	0		1.5231630859375	-0.7171997680664063	0		3.002118896484375	-0.19551541137695314	0		4.31942822265625	-0.027745355606079103	0		5.95032373046875	0.4119429626464844	0		-0.18821968078613283	5.91077099609375	0		
-0.01236567211151123	-0.007202810764312744	0		0.457755615234375	-2.60955126953125	0		-0.9432494506835938	0.23795101928710938	0		-0.5820925903320312	-2.898022705078125	0		1.5553505859375	-0.7296975708007812	0		2.994462646484375	-0.19340921020507812	0		4.32382666015625	-0.02072127914428711	0		5.9457236328125	0.42117666625976563	0		-0.20619523620605468	5.91482666015625	0		
-0.004993481159210205	-4.819230139255524E-4	0		0.4871665344238281	-2.610091796875	0		-0.9389283447265625	0.24166409301757813	0		-0.6204146728515625	-2.878734375	0		1.511646728515625	-0.7312345581054688	0		2.997818603515625	-0.18848431396484375	0		4.31821337890625	-0.012612635612487794	0		5.9539833984375	0.4211861572265625	0		-0.17213746643066405	5.92018701171875	0		
-0.001699059009552002	0.002274004936218262	0		0.46090106201171877	-2.58192822265625	0		-0.9427344970703125	0.23747035217285156	0		-0.5820232543945313	-2.8784580078125	0		1.54986669921875	-0.7368645629882813	0		2.99992724609375	-0.20058291625976563	0		4.32436572265625	-0.02070559501647949	0		5.954220703125	0.42124166870117186	0		-0.20720223999023438	5.91542822265625	0		
0.02149016571044922	-0.0012435849905014038	0		0.48513327026367187	-2.58944140625	0		-0.947564453125	0.23327964782714844	0		-0.6126078491210938	-2.87230078125	0		1.5379310302734375	-0.7518726806640625	0		3.00016455078125	-0.20069400024414064	0		4.3187001953125	-0.012691412925720215	0		5.954435546875	0.42123883056640626	0		-0.1731144561767578	5.92076025390625	0		
-0.014187581062316894	0.007983942985534669	0		0.458441162109375	-2.5873154296875	0		-0.915422119140625	0.22860421752929688	0		-0.58621875	-2.86489013671875	0		1.56999951171875	-0.7644739990234375	0		2.991400390625	-0.19872544860839844	0		4.32071044921875	-0.027824081420898438	0		5.95462646484375	0.42117901611328123	0		-0.17308607482910157	5.92051953125	0		
-0.011218242645263672	-0.008303171157836913	0		0.45937954711914064	-2.610565673828125	0		-0.9522488403320313	0.2288093719482422	0		-0.6138475952148438	-2.8547939453125	0		1.5271700439453124	-0.7661351928710938	0		2.996489990234375	-0.20597085571289062	0		4.3168740234375	-0.028924182891845705	0		5.9547919921875	0.42106448364257815	0		-0.17205787658691407	5.91925341796875	0		
-9.438959956169128E-4	0.0013049930334091187	0		0.4905914306640625	-2.60921875	0		-0.932120361328125	0.22727493286132813	0		-0.6065527954101563	-2.84715673828125	0		1.5242779541015625	-0.7703342895507812	0		3.000703857421875	-0.20123680114746093	0		4.30909912109375	-0.023014921188354492	0		5.9600341796875	0.4288330993652344	0		-0.15587954711914062	5.92878173828125	0		
-8.249300122261048E-4	0.0010306099653244018	0		0.4371383056640625	-2.57779833984375	0		-0.9418873901367187	0.23611882019042968	0		-0.6102000122070312	-2.83138720703125	0		1.5592991943359376	-0.7790416870117187	0		2.99185107421875	-0.19936613464355468	0		4.32524267578125	-0.02145188331604004	0		5.9640458984375	0.4205672607421875	0		-0.17293344116210937	5.919724609375	0		
-7.316089868545532E-4	7.455750107765198E-4	0		0.4591122741699219	-2.58836279296875	0		-0.9518967895507813	0.22795875549316405	0		-0.610094970703125	-2.8316748046875	0		1.5472171630859375	-0.793165283203125	0		2.99380419921875	-0.2106635284423828	0		4.31314453125	-0.03656393814086914	0		5.95513818359375	0.42042227172851565	0		-0.17286460876464843	5.91943896484375	0		
